<?xml version="1.0" encoding="UTF-8"?>
<svg width="211px" height="76px" viewBox="0 0 211 76" version="1.1" xmlns="http://www.w3.org/2000/svg" xmlns:xlink="http://www.w3.org/1999/xlink">
    <title>logo</title>
    <g id="Page-1" stroke="none" stroke-width="1" fill="none" fill-rule="evenodd">
        <g id="Artboard" transform="translate(-85.000000, -20.000000)" fill-rule="nonzero">
            <g id="logo" transform="translate(85.000000, 20.000000)">
                <g id="3506973">
                    <g id="Group" transform="translate(7.840000, 17.600000)">
                        <path d="M56.77632,8.90368 C55.94672,8.90368 55.14016,8.47328 54.69568,7.7032 C54.03296,6.5552 54.42624,5.08736 55.57408,4.4248 L62.53104,0.40816 C63.6792,-0.25504 65.14688,0.13872 65.80944,1.28656 C66.47216,2.43456 66.07888,3.9024 64.93104,4.56496 L57.97408,8.5816 C57.59616,8.8 57.18336,8.90368 56.77632,8.90368 Z" id="Path" fill="#FE9102"></path>
                        <path d="M2.5112,40.23376 C1.6816,40.23376 0.87504,39.80336 0.43056,39.03328 C-0.23216,37.88528 0.16112,36.41744 1.30896,35.75488 L8.26592,31.73824 C9.41392,31.0752 10.88176,31.4688 11.54432,32.61664 C12.20704,33.76464 11.81376,35.23248 10.66592,35.89504 L3.70896,39.91168 C3.33088,40.12992 2.91824,40.23376 2.5112,40.23376 Z" id="Path" fill="#FF5622"></path>
                    </g>
                    <path d="M71.5688,57.83376 C71.1616,57.83376 70.74896,57.73008 70.37104,57.51168 L63.41408,53.49504 C62.26624,52.83232 61.87296,51.36464 62.53568,50.21664 C63.19824,49.0688 64.66608,48.6752 65.81408,49.33824 L72.77104,53.35488 C73.91888,54.0176 74.31216,55.48528 73.64944,56.63328 C73.20512,57.4032 72.39824,57.83376 71.5688,57.83376 Z" id="Path" fill="#FE9102"></path>
                    <g id="Group" transform="translate(38.560000, 0.000000)">
                        <path d="M2.4,12.84672 C1.07456,12.84672 0,11.77216 0,10.44672 L0,2.41328 C0,1.08784 1.07456,0.01328 2.4,0.01328 C3.72544,0.01328 4.8,1.08784 4.8,2.41328 L4.8,10.44672 C4.8,11.77216 3.72544,12.84672 2.4,12.84672 Z" id="Path" fill="#FF5622"></path>
                        <path d="M2.4,75.50672 C1.07456,75.50672 0,74.43216 0,73.10672 L0,65.07328 C0,63.74784 1.07456,62.67328 2.4,62.67328 C3.72544,62.67328 4.8,63.74784 4.8,65.07328 L4.8,73.10672 C4.8,74.43216 3.72544,75.50672 2.4,75.50672 Z" id="Path" fill="#FF5622"></path>
                        <path d="M4.8,73.10672 L4.8,65.07328 C4.8,63.74784 3.72544,62.67328 2.4,62.67328 L2.4,75.50672 C3.72544,75.50672 4.8,74.43216 4.8,73.10672 Z" id="Path" fill="#FE9102"></path>
                        <path d="M4.8,10.44672 L4.8,2.41328 C4.8,1.08784 3.72544,0.01328 2.4,0.01328 L2.4,12.84672 C3.72544,12.84672 4.8,11.77216 4.8,10.44672 Z" id="Path" fill="#FE9102"></path>
                    </g>
                    <path d="M17.30368,26.50368 C16.89648,26.50368 16.48384,26.4 16.10592,26.1816 L9.14896,22.16496 C8.00112,21.50224 7.60784,20.03456 8.27056,18.88656 C8.93312,17.73872 10.40096,17.34512 11.54896,18.00816 L18.50592,22.0248 C19.65376,22.68752 20.04704,24.1552 19.38432,25.3032 C18.94,26.07312 18.13312,26.50368 17.30368,26.50368 L17.30368,26.50368 Z" id="Path" fill="#FF5622"></path>
                    <path d="M70.5048,41.3328 L75.68528,42.628 C78.85216,43.41968 81.92,41.02448 81.92,37.76 C81.92,34.49552 78.85184,32.10032 75.68496,32.89216 C73.06048,33.54832 70.5856,34.16704 70.5048,34.1872 C69.51408,25.94432 65.1416,18.7272 58.81808,13.96864 L62.5384,10.12096 C64.80752,7.77424 64.26704,3.91968 61.44,2.28752 C58.61296,0.65536 55.00448,2.11488 54.10672,5.25328 C53.3624,7.85552 52.66032,10.30944 52.63776,10.38832 C49.05056,8.852 45.10304,8 40.96,8 C36.81696,8 32.86944,8.852 29.28208,10.38832 L27.81312,5.25296 C26.91536,2.11456 23.30704,0.65536 20.48,2.28752 C17.65296,3.91968 17.11264,7.7744 19.38192,10.12112 C21.27024,12.07408 23.05168,13.91648 23.10208,13.96848 C16.7784,18.72704 12.40608,25.94416 11.41536,34.18704 L6.23488,32.89184 C3.06784,32.10032 -9.09494702e-15,34.49552 -9.09494702e-15,37.76 C-9.09494702e-15,41.02448 3.06816,43.41968 6.23504,42.62784 C8.85952,41.97168 11.3344,41.35296 11.4152,41.3328 C12.40592,49.57568 16.77824,56.7928 23.10192,61.55136 L19.3816,65.39904 C17.11248,67.74576 17.65296,71.60032 20.48,73.23248 C23.30704,74.86464 26.91552,73.40512 27.81328,70.26672 C28.5576,67.66448 29.25968,65.21056 29.28224,65.13168 C32.86944,66.668 36.81696,67.52 40.96,67.52 C45.10304,67.52 49.05056,66.668 52.63792,65.13168 L54.10688,70.26704 C55.00464,73.4056 58.61296,74.8648 61.44,73.23248 C64.26704,71.60032 64.80736,67.7456 62.53808,65.39888 C60.64976,63.44592 58.86832,61.60352 58.81792,61.55152 C65.1416,56.7928 69.51408,49.57568 70.5048,41.3328 Z" id="Path" fill="#FE9102"></path>
                    <path d="M75.68496,32.89216 C73.06048,33.54832 70.5856,34.16704 70.5048,34.1872 C69.51408,25.94432 65.1416,18.7272 58.81808,13.96864 L62.5384,10.12096 C64.80752,7.77424 64.26704,3.91968 61.44,2.28752 C58.61296,0.65536 55.00448,2.11488 54.10672,5.25344 C53.3624,7.85568 52.66032,10.3096 52.63776,10.38848 C49.05056,8.852 45.10304,8 40.96,8 L40.96,67.52 C45.10304,67.52 49.05056,66.668 52.63792,65.13168 L54.10688,70.26704 C55.00464,73.4056 58.61296,74.8648 61.44,73.23248 C64.26704,71.60032 64.80736,67.7456 62.53808,65.39888 C60.64976,63.44608 58.86832,61.60352 58.81792,61.55152 C65.1416,56.79296 69.51392,49.57584 70.50464,41.33296 L75.68512,42.628 C78.85216,43.41968 81.92,41.02448 81.92,37.76 C81.92,34.49552 78.85184,32.10032 75.68496,32.89216 L75.68496,32.89216 Z" id="Path" fill="#FF5622"></path>
                    <g id="Group" transform="translate(20.160000, 20.160000)">
                        <path d="M34.4,31.2 C30.42992,31.2 27.2,27.97008 27.2,24 C27.2,20.02992 30.42992,16.8 34.4,16.8 C38.37008,16.8 41.6,20.02992 41.6,24 C41.6,27.97008 38.37008,31.2 34.4,31.2 Z" id="Path" fill="#FE9102"></path>
                        <circle id="Oval" fill="#FF5622" cx="13.6" cy="31.2" r="2.4"></circle>
                        <circle id="Oval" fill="#FE9102" cx="34.4" cy="8.8" r="2.4"></circle>
                        <circle id="Oval" fill="#FE9102" cx="24.8" cy="2.4" r="2.4"></circle>
                        <path d="M8.8,21.6 C3.94768,21.6 0,17.65232 0,12.8 C0,7.94768 3.94768,4 8.8,4 C13.65232,4 17.6,7.94768 17.6,12.8 C17.6,17.65232 13.65232,21.6 8.8,21.6 Z" id="Path" fill="#FF5622"></path>
                    </g>
                </g>
                <path d="M105.734375,34.2539062 C107.841797,34.2539062 109.530273,33.7016602 110.799805,32.597168 C112.069336,31.4926758 112.797201,29.9544271 112.983398,27.9824219 L112.983398,27.9824219 L109.78418,27.9824219 C109.614909,29.3027344 109.212891,30.2464193 108.578125,30.8134766 C107.943359,31.3805339 106.995443,31.6640625 105.734375,31.6640625 C104.354818,31.6640625 103.307454,31.1393229 102.592285,30.0898438 C101.877116,29.0403646 101.519531,27.5169271 101.519531,25.5195312 L101.519531,25.5195312 L101.519531,23.8818359 C101.536458,21.9098307 101.919434,20.4138997 102.668457,19.394043 C103.41748,18.3741862 104.490234,17.8642578 105.886719,17.8642578 C107.088542,17.8642578 108.000488,18.1583659 108.622559,18.746582 C109.244629,19.3347982 109.631836,20.2932943 109.78418,21.6220703 L109.78418,21.6220703 L112.983398,21.6220703 C112.780273,19.5992839 112.056641,18.0335286 110.8125,16.9248047 C109.568359,15.8160807 107.926432,15.2617188 105.886719,15.2617188 C104.371745,15.2617188 103.036621,15.6214193 101.881348,16.3408203 C100.726074,17.0602214 99.8395182,18.0843099 99.2216797,19.4130859 C98.6038411,20.741862 98.2949219,22.2779948 98.2949219,24.0214844 L98.2949219,24.0214844 L98.2949219,25.7480469 C98.3203125,27.4492188 98.6376953,28.9430339 99.2470703,30.2294922 C99.8564453,31.5159505 100.721842,32.5083008 101.843262,33.206543 C102.964681,33.9047852 104.261719,34.2539062 105.734375,34.2539062 Z M122.961914,34.2539062 C124.476888,34.2539062 125.816243,33.8878581 126.97998,33.1557617 C128.143717,32.4236654 129.038737,31.3741862 129.665039,30.0073242 C130.291341,28.6404622 130.604492,27.0514323 130.604492,25.2402344 L130.604492,25.2402344 L130.604492,24.2119141 C130.596029,22.4091797 130.274414,20.8286133 129.639648,19.4702148 C129.004883,18.1118164 128.105632,17.0708008 126.941895,16.347168 C125.778158,15.6235352 124.443034,15.2617188 122.936523,15.2617188 C121.430013,15.2617188 120.094889,15.6277669 118.931152,16.3598633 C117.767415,17.0919596 116.866048,18.1477865 116.227051,19.5273438 C115.588053,20.906901 115.268555,22.4980469 115.268555,24.3007812 L115.268555,24.3007812 L115.268555,25.3417969 C115.277018,27.1106771 115.600749,28.6722005 116.239746,30.0263672 C116.878743,31.3805339 117.784342,32.4236654 118.956543,33.1557617 C120.128743,33.8878581 121.463867,34.2539062 122.961914,34.2539062 Z M122.961914,31.6132812 C121.556966,31.6132812 120.458822,31.0589193 119.66748,29.9501953 C118.876139,28.8414714 118.480469,27.2714844 118.480469,25.2402344 L118.480469,25.2402344 L118.480469,24.1738281 C118.497396,22.1848958 118.897298,20.6466471 119.680176,19.559082 C120.463053,18.4715169 121.548503,17.9277344 122.936523,17.9277344 C124.358398,17.9277344 125.456543,18.4736328 126.230957,19.5654297 C127.005371,20.6572266 127.392578,22.2272135 127.392578,24.2753906 L127.392578,24.2753906 L127.392578,25.2402344 C127.392578,27.3222656 127.009603,28.9049479 126.243652,29.9882812 C125.477702,31.0716146 124.383789,31.6132812 122.961914,31.6132812 Z M141.890625,34 L148.542969,15.515625 L145.013672,15.515625 L140.316406,29.9755859 L135.669922,15.515625 L132.15332,15.515625 L138.780273,34 L141.890625,34 Z M154.014648,34 L154.014648,15.515625 L150.81543,15.515625 L150.81543,34 L154.014648,34 Z M163.282227,34 C164.949544,34 166.428548,33.6402995 167.719238,32.9208984 C169.009928,32.2014974 170.004395,31.1774089 170.702637,29.8486328 C171.400879,28.5198568 171.75,26.9794922 171.75,25.2275391 L171.75,25.2275391 L171.75,24.3007812 C171.75,22.5742188 171.402995,21.0423177 170.708984,19.7050781 C170.014974,18.3678385 169.035319,17.3352865 167.77002,16.6074219 C166.50472,15.8795573 165.055339,15.515625 163.421875,15.515625 L163.421875,15.515625 L157.962891,15.515625 L157.962891,34 L163.282227,34 Z M163.269531,31.4355469 L161.174805,31.4355469 L161.174805,18.1054688 L163.421875,18.1054688 C165.080729,18.1054688 166.346029,18.6344401 167.217773,19.6923828 C168.089518,20.7503255 168.525391,22.2822266 168.525391,24.2880859 L168.525391,24.2880859 L168.525391,25.3164062 C168.508464,27.2884115 168.049316,28.8012695 167.147949,29.8549805 C166.246582,30.9086914 164.953776,31.4355469 163.269531,31.4355469 L163.269531,31.4355469 Z M180.636719,27.3857422 L180.636719,24.8974609 L173.97168,24.8974609 L173.97168,27.3857422 L180.636719,27.3857422 Z M191.338867,34 L191.338867,15.4521484 L190.945312,15.4521484 L183.734375,18.1054688 L183.734375,20.7080078 L188.266602,19.1591797 L188.266602,34 L191.338867,34 Z M200.606445,34.0761719 C203.594076,34.0507812 205.841146,33.1621094 207.347656,31.4101562 C208.854167,29.6582031 209.607422,27.1149089 209.607422,23.7802734 L209.607422,23.7802734 L209.607422,22.9169922 C209.607422,20.5895182 209.061523,18.7317708 207.969727,17.34375 C206.87793,15.9557292 205.401042,15.2617188 203.539062,15.2617188 C202.345703,15.2617188 201.296224,15.5367839 200.390625,16.0869141 C199.485026,16.6370443 198.786784,17.4072266 198.295898,18.3974609 C197.805013,19.3876953 197.55957,20.4921875 197.55957,21.7109375 C197.55957,23.5644531 198.041992,25.0603841 199.006836,26.1987305 C199.97168,27.3370768 201.266602,27.90625 202.891602,27.90625 C204.271159,27.90625 205.477214,27.3603516 206.509766,26.2685547 C206.391276,28.0458984 205.845378,29.3598633 204.87207,30.2104492 C203.898763,31.0610352 202.502279,31.4990234 200.682617,31.5244141 L200.682617,31.5244141 L200.238281,31.5244141 L200.238281,34.0761719 L200.606445,34.0761719 Z M203.539062,25.4941406 C202.650391,25.4941406 201.939453,25.1386719 201.40625,24.4277344 C200.873047,23.7167969 200.606445,22.7815755 200.606445,21.6220703 C200.606445,20.5048828 200.870931,19.5802409 201.399902,18.8481445 C201.928874,18.1160482 202.637695,17.75 203.526367,17.75 C204.415039,17.75 205.138672,18.1647135 205.697266,18.9941406 C206.255859,19.8235677 206.535156,20.9195964 206.535156,22.2822266 L206.535156,22.2822266 L206.535156,23.4882812 C206.238932,24.1145833 205.819987,24.6054688 205.27832,24.9609375 C204.736654,25.3164062 204.156901,25.4941406 203.539062,25.4941406 Z M106.470703,63 L106.470703,47.1054688 L112.234375,47.1054688 L112.234375,44.515625 L97.5712891,44.515625 L97.5712891,47.1054688 L103.28418,47.1054688 L103.28418,63 L106.470703,63 Z M117.871094,63 L117.871094,55.8779297 L121.451172,55.8779297 L125.158203,63 L128.598633,63 L128.598633,62.8349609 L124.447266,55.1289062 C125.513672,54.6803385 126.345215,54.0392253 126.941895,53.2055664 C127.538574,52.3719076 127.836914,51.3372396 127.836914,50.1015625 C127.836914,48.2903646 127.257161,46.9065755 126.097656,45.9501953 C124.938151,44.9938151 123.291992,44.515625 121.15918,44.515625 L121.15918,44.515625 L114.65918,44.515625 L114.65918,63 L117.871094,63 Z M121.171875,53.3007812 L117.871094,53.3007812 L117.871094,47.1054688 L121.260742,47.1054688 C122.37793,47.1223958 123.217936,47.4016927 123.780762,47.9433594 C124.343587,48.485026 124.625,49.2509766 124.625,50.2412109 C124.625,51.1891276 124.320312,51.9360352 123.710938,52.4819336 C123.101562,53.027832 122.255208,53.3007812 121.171875,53.3007812 L121.171875,53.3007812 Z M132.572266,63 L134.070312,58.6962891 L141.230469,58.6962891 L142.741211,63 L146.092773,63 L139.097656,44.515625 L136.21582,44.515625 L129.233398,63 L132.572266,63 Z M140.329102,56.1064453 L134.97168,56.1064453 L137.650391,48.4384766 L140.329102,56.1064453 Z M155.042969,63.2539062 C157.150391,63.2539062 158.838867,62.7016602 160.108398,61.597168 C161.37793,60.4926758 162.105794,58.9544271 162.291992,56.9824219 L162.291992,56.9824219 L159.092773,56.9824219 C158.923503,58.3027344 158.521484,59.2464193 157.886719,59.8134766 C157.251953,60.3805339 156.304036,60.6640625 155.042969,60.6640625 C153.663411,60.6640625 152.616048,60.1393229 151.900879,59.0898438 C151.18571,58.0403646 150.828125,56.5169271 150.828125,54.5195312 L150.828125,54.5195312 L150.828125,52.8818359 C150.845052,50.9098307 151.228027,49.4138997 151.977051,48.394043 C152.726074,47.3741862 153.798828,46.8642578 155.195312,46.8642578 C156.397135,46.8642578 157.309082,47.1583659 157.931152,47.746582 C158.553223,48.3347982 158.94043,49.2932943 159.092773,50.6220703 L159.092773,50.6220703 L162.291992,50.6220703 C162.088867,48.5992839 161.365234,47.0335286 160.121094,45.9248047 C158.876953,44.8160807 157.235026,44.2617188 155.195312,44.2617188 C153.680339,44.2617188 152.345215,44.6214193 151.189941,45.3408203 C150.034668,46.0602214 149.148112,47.0843099 148.530273,48.4130859 C147.912435,49.741862 147.603516,51.2779948 147.603516,53.0214844 L147.603516,53.0214844 L147.603516,54.7480469 C147.628906,56.4492188 147.946289,57.9430339 148.555664,59.2294922 C149.165039,60.5159505 150.030436,61.5083008 151.151855,62.206543 C152.273275,62.9047852 153.570312,63.2539062 155.042969,63.2539062 Z M168.373047,63 L168.373047,57.2363281 L170.467773,55.0146484 L176.02832,63 L179.836914,63 L172.575195,52.7041016 L179.443359,44.515625 L175.558594,44.515625 L170.150391,50.9902344 L168.373047,53.1865234 L168.373047,44.515625 L165.161133,44.515625 L165.161133,63 L168.373047,63 Z M193.636719,63 L193.636719,60.4355469 L184.762695,60.4355469 L184.762695,54.7480469 L192.354492,54.7480469 L192.354492,52.2089844 L184.762695,52.2089844 L184.762695,47.1054688 L193.547852,47.1054688 L193.547852,44.515625 L181.550781,44.515625 L181.550781,63 L193.636719,63 Z M199.463867,63 L199.463867,55.8779297 L203.043945,55.8779297 L206.750977,63 L210.191406,63 L210.191406,62.8349609 L206.040039,55.1289062 C207.106445,54.6803385 207.937988,54.0392253 208.534668,53.2055664 C209.131348,52.3719076 209.429688,51.3372396 209.429688,50.1015625 C209.429688,48.2903646 208.849935,46.9065755 207.69043,45.9501953 C206.530924,44.9938151 204.884766,44.515625 202.751953,44.515625 L202.751953,44.515625 L196.251953,44.515625 L196.251953,63 L199.463867,63 Z M202.764648,53.3007812 L199.463867,53.3007812 L199.463867,47.1054688 L202.853516,47.1054688 C203.970703,47.1223958 204.81071,47.4016927 205.373535,47.9433594 C205.936361,48.485026 206.217773,49.2509766 206.217773,50.2412109 C206.217773,51.1891276 205.913086,51.9360352 205.303711,52.4819336 C204.694336,53.027832 203.847982,53.3007812 202.764648,53.3007812 L202.764648,53.3007812 Z" id="COVID-19TRACKER" fill="#FFFFFF"></path>
            </g>
        </g>
    </g>
</svg>