<?xml version="1.0" encoding="UTF-8"?>
<svg width="50px" height="51px" viewBox="0 0 50 51" version="1.1" xmlns="http://www.w3.org/2000/svg" xmlns:xlink="http://www.w3.org/1999/xlink">
    <title>userIcon</title>
    <g id="Page-1" stroke="none" stroke-width="1" fill="none" fill-rule="evenodd">
        <g id="Artboard" transform="translate(-621.000000, -443.000000)" fill-rule="nonzero">
            <g id="userIcon" transform="translate(621.000000, 443.000000)">
                <path d="M25,0 C11.1909449,0 0,11.1909449 0,25 C0,32.4507874 3.25787402,39.1437008 8.43503937,43.730315 C12.8543307,47.6279528 18.6515748,50 25,50 C31.3582677,50 37.1555118,47.6279528 41.5649606,43.7204724 C46.742126,39.1437008 50,32.4507874 50,25 C50,11.1909449 38.8090551,0 25,0 Z" id="Path" fill="#4CCAA2"></path>
                <path d="M39.6062992,41.6929134 C38.3267717,40.738189 36.003937,39.1535433 33.4744094,37.9822835 C30.9448819,36.8208661 29.4586614,34.0944882 29.8622047,31.3484252 C29.8622047,31.3090551 29.8720472,31.269685 29.8818898,31.2204724 C29.8818898,31.2204724 35.6397638,27.3228346 34.8425197,23.523622 C34.8425197,23.523622 35.019685,23.5334646 35.2854331,23.5137795 C37.8248031,23.2775591 37.9822835,19.4980315 35.4724409,19.0944882 C35.4527559,19.0944882 35.4232283,19.0846457 35.4035433,19.0846457 L35.3248031,18.6712598 C36.0925197,15.984252 37.9625984,7.84448819 32.3031496,8.63188976 C32.3031496,8.63188976 28.238189,1.90944882 19.6456693,5.1476378 C11.0433071,8.37598425 13.2874016,16.0826772 13.2874016,16.0826772 L14.3503937,19.1535433 C12.0374016,19.7244094 12.253937,23.2972441 14.7145669,23.523622 C14.980315,23.5433071 15.1673228,23.5334646 15.1673228,23.5334646 C14.3602362,27.3326772 20.1181102,31.230315 20.1181102,31.230315 C20.1279528,31.2795276 20.1279528,31.3188976 20.1377953,31.3582677 C20.5314961,34.1043307 19.0452756,36.8307087 16.5255906,37.992126 C13.9862205,39.1633858 11.6732283,40.757874 10.3937008,41.7027559 C9.62598425,42.2637795 8.94685039,42.9429134 8.42519685,43.7401575 C12.8543307,47.6279528 18.6515748,50 25,50 C31.3582677,50 37.1555118,47.6279528 41.5649606,43.7204724 C41.0531496,42.9330709 40.3740157,42.253937 39.6062992,41.6929134 Z" id="Path" fill="#1F8370"></path>
            </g>
        </g>
    </g>
</svg>