<?xml version="1.0" encoding="UTF-8"?>
<svg width="40px" height="40px" viewBox="0 0 40 40" version="1.1" xmlns="http://www.w3.org/2000/svg" xmlns:xlink="http://www.w3.org/1999/xlink">
    <title>caseIcon</title>
    <g id="Page-1" stroke="none" stroke-width="1" fill="none" fill-rule="evenodd">
        <g id="Artboard" transform="translate(-452.000000, -468.000000)" fill-rule="nonzero">
            <g id="caseIcon" transform="translate(452.000000, 468.000000)">
                <path d="M16.5082873,0.0979040964 C18.1926055,0.0979040964 19.5910061,1.42431138 19.7127072,3.13735211 C19.7110686,3.87530293 19.4329466,4.58472123 18.9352486,5.1204507 C18.4847103,5.60386337 18.2719893,6.26868477 18.3562431,6.93002817 C18.399785,7.25297967 18.5136544,7.56190029 18.6895028,7.83414085 L19.4885297,9.0709041 L19.7109392,9.06907042 C21.7881556,9.06907042 23.7292066,9.66355946 25.3793946,10.6947896 L25.5509392,10.619493 C26.4368314,10.2286812 27.2455862,9.67674168 27.9376796,8.99064789 C28.2442156,8.68676407 28.416914,8.2691885 28.4163536,7.83323944 C28.4144937,6.67543994 29.2931829,5.71441124 30.4259443,5.63533568 C31.5587057,5.55626011 32.5576311,6.38621669 32.7105192,7.53347324 C32.8634072,8.6807298 32.1179021,9.75241443 31.0055249,9.9844507 C30.705463,10.040888 30.4293576,10.18913 30.2139227,10.4094648 C29.3874461,11.2814821 28.7626072,12.3302602 28.3844445,13.4790117 C29.2282645,14.6154007 29.8598438,15.9225091 30.2228807,17.340284 L30.7120442,17.5959437 C31.0546405,17.7769046 31.4430135,17.8476244 31.8258564,17.7987606 L32.4932597,17.7221408 C33.0868336,17.6381151 33.610624,17.2831418 33.9164641,16.7576338 C34.5037445,15.7887216 35.5397818,15.1974414 36.6567956,15.1936901 C38.4844368,15.219653 39.9460002,16.7503765 39.9229576,18.6140845 C39.947237,20.4792935 38.4854658,22.0122462 36.6563536,22.0394366 C35.718708,22.0383962 34.8286197,21.6183453 34.2209945,20.8901408 C33.846119,20.4287602 33.2924592,20.1571707 32.7049724,20.1464789 C32.4663595,20.1466674 32.2297553,20.1909511 32.0066298,20.2771831 L30.5530898,20.8495166 C30.4665702,22.2591854 30.1215051,23.5973694 29.5656851,24.8153356 C29.7836407,25.2467622 30.1076061,25.6166503 30.5082873,25.8884507 C30.9460469,26.1951721 31.4623375,26.3643949 31.9933702,26.3752113 C32.0552486,26.3752113 32.1171271,26.3707042 32.1790055,26.3661972 C32.240884,26.3616901 32.3160221,26.3616901 32.3823204,26.3616901 C33.4559052,26.3809306 34.3518297,27.2031101 34.4833577,28.2897877 C34.6148858,29.3764652 33.9418892,30.3961047 32.9051099,30.6809496 C31.8683307,30.9657945 30.7840813,30.4289411 30.3624309,29.4219718 C30.1860683,28.9927542 29.9118057,28.6126494 29.5624309,28.3132394 L28.1537238,27.1188485 C27.1469535,28.3850045 25.8717972,29.4202242 24.4165558,30.1344656 L24.240884,30.9092958 C24.0690497,31.6585102 24.1120072,32.4423 24.3646409,33.1673239 L24.4265193,33.3521127 C24.6459409,34.0378857 25.0540397,34.6448954 25.6022099,35.1008451 C26.7093119,35.9603108 26.9845439,37.5421643 26.2349715,38.7375446 C25.4853991,39.9329249 23.9618084,40.3418911 22.7322187,39.6777626 C21.502629,39.0136341 20.9784268,37.4986099 21.5270718,36.1947042 C21.9352963,35.2851412 22.0166586,34.2581094 21.7569061,33.2935211 L21.6596685,32.96 L20.9423432,31.1544073 C20.5381762,31.2009048 20.127293,31.2247887 19.7109392,31.2247887 C18.7125977,31.2247887 17.7457091,31.0874672 16.8274477,30.8303369 L15.719337,32.0991549 C15.5317181,32.3166652 15.3672616,32.5538615 15.2287293,32.8067606 L15.2163536,32.8297465 C14.734949,33.8359095 14.4640189,34.9331714 14.4207735,36.051831 L14.4207735,36.0653521 C14.4203641,36.7343663 14.121729,37.366913 13.6091419,37.78449 C13.0965547,38.2020669 12.4256062,38.3593875 11.7856354,38.2120563 C10.9550873,37.969037 10.3223101,37.2808578 10.1379006,36.4200563 C10.0002196,35.567873 10.3658411,34.712638 11.0718232,34.235493 C11.6754674,33.8557981 12.1707949,33.321175 12.5082873,32.6850704 L12.8176796,32.0766197 C13.0613833,31.5973711 13.2012619,31.0703221 13.2278453,30.5311549 L13.2986287,29.0901077 C11.9927909,28.1148714 10.9084901,26.849423 10.1370636,25.3869008 L8.15867403,25.4336901 C7.78850093,25.442396 7.42377583,25.5265255 7.08596685,25.6811268 C6.50421706,25.9358017 6.03115793,26.3945251 5.75248619,26.9741972 C5.2243707,28.0956866 4.08134928,28.7778369 2.86382544,28.6981374 C1.6463016,28.6184379 0.598196672,27.7928559 0.215039079,26.6117143 C-0.168118515,25.4305726 0.190433835,24.1305038 1.12117791,23.3261609 C2.05192198,22.5218181 3.36839053,22.374345 4.4481768,22.9534648 C5.02340819,23.2645908 5.68803979,23.3581489 6.32441989,23.2175775 L6.49370166,23.180169 C6.90034607,23.0906172 7.28205387,22.9090156 7.61060773,22.6487887 L8.93963568,21.5978616 C8.87871914,21.1230186 8.84729282,20.6387164 8.84729282,20.1469296 C8.84729282,18.3897376 9.24850875,16.7281023 9.9626214,15.2520846 L9.61325967,14.3968451 C9.49520465,14.1060429 9.30698093,13.8503878 9.06607735,13.6536338 C8.68857918,13.3562568 8.21542548,13.214085 7.7401105,13.2552113 C7.47137021,13.2716164 7.20192114,13.2387976 6.94453039,13.1583099 C6.43315353,12.9933155 6.00263005,12.6358522 5.74055249,12.1586479 C5.32170855,11.4217718 5.35881721,10.5043174 5.83574676,9.80511596 C6.31267631,9.10591454 7.14327909,8.7512627 7.96647948,8.89533296 C8.78967988,9.03940323 9.4567834,9.65617222 9.67779006,10.4775211 C9.791547,10.8543654 10.0267057,11.1810274 10.3451934,11.4046197 L10.6466298,11.6299718 C10.8927268,11.8218146 11.1809727,11.9495966 11.4864088,12.0022535 L12.2206629,12.1231641 C13.203612,11.1687338 14.3617213,10.4001819 15.6407835,9.87278467 L15.8285083,8.27583099 C15.8628459,7.9840397 15.8390939,7.68818322 15.758674,7.40597183 L15.6092818,6.88090141 C15.4536774,6.36190283 15.1201395,5.91732193 14.6696133,5.62839437 C13.8284553,5.08901161 13.3139273,4.15054192 13.3038674,3.13735211 C13.4255685,1.42431138 14.8239691,0.0979040964 16.5082873,0.0979040964 Z" fill="#FE9102"></path>
                <path d="M21.6892818,25.3403944 C22.3422593,25.3403944 22.8716022,25.880175 22.8716022,26.5460282 C22.8716022,27.2118813 22.3422593,27.751662 21.6892818,27.751662 C21.0363042,27.751662 20.5069613,27.2118813 20.5069613,26.5460282 C20.5069613,25.880175 21.0363042,25.3403944 21.6892818,25.3403944 Z M17.3149171,20.7089577 C18.0726152,20.7089577 18.6868508,21.3353051 18.6868508,22.1079437 C18.6868508,22.8805822 18.0726152,23.5069296 17.3149171,23.5069296 C16.5572191,23.5069296 15.9429834,22.8805822 15.9429834,22.1079437 C15.9429834,21.3353051 16.5572191,20.7089577 17.3149171,20.7089577 Z M25.2879558,17.3620282 C26.1943131,17.3620282 26.9290608,18.1112639 26.9290608,19.035493 C26.9290608,19.959722 26.1943131,20.7089577 25.2879558,20.7089577 C24.3815986,20.7089577 23.6468508,19.959722 23.6468508,19.035493 C23.6468508,18.1112639 24.3815986,17.3620282 25.2879558,17.3620282 Z M14.8287293,14.7267606 C15.9955452,14.7267606 16.9414365,15.6913032 16.9414365,16.8811268 C16.9414365,18.0709504 15.9955452,19.035493 14.8287293,19.035493 C13.6619133,19.035493 12.7160221,18.0709504 12.7160221,16.8811268 C12.7160221,15.6913032 13.6619133,14.7267606 14.8287293,14.7267606 Z M20.8937017,13.2132958 C21.5466792,13.2132958 22.0760221,13.7530764 22.0760221,14.4189296 C22.0760221,15.0847827 21.5466792,15.6245634 20.8937017,15.6245634 C20.2407241,15.6245634 19.7113812,15.0847827 19.7113812,14.4189296 C19.7113812,13.7530764 20.2407241,13.2132958 20.8937017,13.2132958 Z" id="Combined-Shape" fill="#E97406"></path>
            </g>
        </g>
    </g>
</svg>