<?xml version="1.0" encoding="UTF-8"?>
<svg width="64px" height="64px" viewBox="0 0 64 64" version="1.1" xmlns="http://www.w3.org/2000/svg" xmlns:xlink="http://www.w3.org/1999/xlink">
    <title>favicon</title>
    <g id="Page-1" stroke="none" stroke-width="1" fill="none" fill-rule="evenodd">
        <g id="favicon">
            <rect id="Rectangle" fill="#222222" x="0" y="0" width="64" height="64"></rect>
            <g id="3506973" transform="translate(6.000000, 8.000000)" fill-rule="nonzero">
                <g id="Group" transform="translate(4.939200, 11.088000)">
                    <path d="M35.7690816,5.6093184 C35.2464336,5.6093184 34.7383008,5.3381664 34.4582784,4.853016 C34.0407648,4.129776 34.2885312,3.2050368 35.0116704,2.787624 L39.3945552,0.2571408 C40.117896,-0.1606752 41.0425344,0.0873936 41.4599472,0.8105328 C41.8774608,1.5337728 41.6296944,2.458512 40.9065552,2.8759248 L36.5236704,5.406408 C36.2855808,5.544 36.0255168,5.6093184 35.7690816,5.6093184 Z" id="Path" fill="#FE9102"></path>
                    <path d="M1.582056,25.3472688 C1.059408,25.3472688 0.5512752,25.0761168 0.2712528,24.5909664 C-0.1462608,23.8677264 0.1015056,22.9429872 0.8246448,22.5255744 L5.2075296,19.9950912 C5.9307696,19.577376 6.8555088,19.825344 7.2729216,20.5484832 C7.6904352,21.2717232 7.4426688,22.1964624 6.7195296,22.6138752 L2.3366448,25.1443584 C2.0984544,25.2818496 1.8384912,25.3472688 1.582056,25.3472688 Z" id="Path" fill="#FF5622"></path>
                </g>
                <path d="M45.088344,36.4352688 C44.831808,36.4352688 44.5718448,36.3699504 44.3337552,36.2323584 L39.9508704,33.7018752 C39.2277312,33.2843616 38.9799648,32.3597232 39.3974784,31.6364832 C39.8148912,30.913344 40.7396304,30.665376 41.4628704,31.0830912 L45.8457552,33.6135744 C46.5688944,34.031088 46.8166608,34.9557264 46.3991472,35.6789664 C46.1192256,36.164016 45.6108912,36.4352688 45.088344,36.4352688 Z" id="Path" fill="#FE9102"></path>
                <g id="Group" transform="translate(24.292800, 0.000000)">
                    <path d="M1.512,8.0934336 C0.6769728,8.0934336 0,7.4164608 0,6.5814336 L0,1.5203664 C0,0.6853392 0.6769728,0.0083664 1.512,0.0083664 C2.3470272,0.0083664 3.024,0.6853392 3.024,1.5203664 L3.024,6.5814336 C3.024,7.4164608 2.3470272,8.0934336 1.512,8.0934336 Z" id="Path" fill="#FF5622"></path>
                    <path d="M1.512,47.5692336 C0.6769728,47.5692336 0,46.8922608 0,46.0572336 L0,40.9961664 C0,40.1611392 0.6769728,39.4841664 1.512,39.4841664 C2.3470272,39.4841664 3.024,40.1611392 3.024,40.9961664 L3.024,46.0572336 C3.024,46.8922608 2.3470272,47.5692336 1.512,47.5692336 Z" id="Path" fill="#FF5622"></path>
                    <path d="M3.024,46.0572336 L3.024,40.9961664 C3.024,40.1611392 2.3470272,39.4841664 1.512,39.4841664 L1.512,47.5692336 C2.3470272,47.5692336 3.024,46.8922608 3.024,46.0572336 Z" id="Path" fill="#FE9102"></path>
                    <path d="M3.024,6.5814336 L3.024,1.5203664 C3.024,0.6853392 2.3470272,0.0083664 1.512,0.0083664 L1.512,8.0934336 C2.3470272,8.0934336 3.024,7.4164608 3.024,6.5814336 Z" id="Path" fill="#FE9102"></path>
                </g>
                <path d="M10.9013184,16.6973184 C10.6447824,16.6973184 10.3848192,16.632 10.1467296,16.494408 L5.7638448,13.9639248 C5.0407056,13.5464112 4.7929392,12.6217728 5.2104528,11.8985328 C5.6278656,11.1753936 6.5526048,10.9274256 7.2758448,11.3451408 L11.6587296,13.875624 C12.3818688,14.2931376 12.6296352,15.217776 12.2121216,15.941016 C11.9322,16.4260656 11.4238656,16.6973184 10.9013184,16.6973184 L10.9013184,16.6973184 Z" id="Path" fill="#FF5622"></path>
                <path d="M44.418024,26.039664 L47.6817264,26.85564 C49.6768608,27.3543984 51.6096,25.8454224 51.6096,23.7888 C51.6096,21.7321776 49.6766592,20.2232016 47.6815248,20.7220608 C46.0281024,21.1354416 44.468928,21.5252352 44.418024,21.537936 C43.7938704,16.3449216 41.039208,11.798136 37.0553904,8.8002432 L39.399192,6.3762048 C40.8287376,4.8977712 40.4882352,2.4693984 38.7072,1.4411376 C36.9261648,0.4128768 34.6528224,1.3323744 34.0872336,3.3095664 C33.618312,4.9489776 33.1760016,6.4949472 33.1617888,6.5446416 C30.9018528,5.57676 28.4149152,5.04 25.8048,5.04 C23.1946848,5.04 20.7077472,5.57676 18.4477104,6.5446416 L17.5222656,3.3093648 C16.9566768,1.3321728 14.6834352,0.4128768 12.9024,1.4411376 C11.1213648,2.4693984 10.7809632,4.897872 12.2106096,6.3763056 C13.4002512,7.6066704 14.5225584,8.7673824 14.5543104,8.8001424 C10.570392,11.7980352 7.8158304,16.3448208 7.1916768,21.5378352 L3.9279744,20.7218592 C1.9327392,20.2232016 -5.72981662e-15,21.7321776 -5.72981662e-15,23.7888 C-5.72981662e-15,25.8454224 1.9329408,27.3543984 3.9280752,26.8555392 C5.5814976,26.4421584 7.140672,26.0523648 7.191576,26.039664 C7.8157296,31.2326784 10.5702912,35.779464 14.5542096,38.7773568 L12.210408,41.2013952 C10.7808624,42.6798288 11.1213648,45.1082016 12.9024,46.1364624 C14.6834352,47.1647232 16.9567776,46.2452256 17.5223664,44.2680336 C17.991288,42.6286224 18.4335984,41.0826528 18.4478112,41.0329584 C20.7077472,42.00084 23.1946848,42.5376 25.8048,42.5376 C28.4149152,42.5376 30.9018528,42.00084 33.1618896,41.0329584 L34.0873344,44.2682352 C34.6529232,46.245528 36.9261648,47.164824 38.7072,46.1364624 C40.4882352,45.1082016 40.8286368,42.679728 39.3989904,41.2012944 C38.2093488,39.9709296 37.0870416,38.8102176 37.0552896,38.7774576 C41.039208,35.779464 43.7938704,31.2326784 44.418024,26.039664 Z" id="Path" fill="#FE9102"></path>
                <path d="M47.6815248,20.7220608 C46.0281024,21.1354416 44.468928,21.5252352 44.418024,21.537936 C43.7938704,16.3449216 41.039208,11.798136 37.0553904,8.8002432 L39.399192,6.3762048 C40.8287376,4.8977712 40.4882352,2.4693984 38.7072,1.4411376 C36.9261648,0.4128768 34.6528224,1.3323744 34.0872336,3.3096672 C33.618312,4.9490784 33.1760016,6.495048 33.1617888,6.5447424 C30.9018528,5.57676 28.4149152,5.04 25.8048,5.04 L25.8048,42.5376 C28.4149152,42.5376 30.9018528,42.00084 33.1618896,41.0329584 L34.0873344,44.2682352 C34.6529232,46.245528 36.9261648,47.164824 38.7072,46.1364624 C40.4882352,45.1082016 40.8286368,42.679728 39.3989904,41.2012944 C38.2093488,39.9710304 37.0870416,38.8102176 37.0552896,38.7774576 C41.039208,35.7795648 43.7937696,31.2327792 44.4179232,26.0397648 L47.6816256,26.85564 C49.6768608,27.3543984 51.6096,25.8454224 51.6096,23.7888 C51.6096,21.7321776 49.6766592,20.2232016 47.6815248,20.7220608 L47.6815248,20.7220608 Z" id="Path" fill="#FF5622"></path>
                <g id="Group" transform="translate(12.700800, 12.700800)">
                    <path d="M21.672,19.656 C19.1708496,19.656 17.136,17.6211504 17.136,15.12 C17.136,12.6188496 19.1708496,10.584 21.672,10.584 C24.1731504,10.584 26.208,12.6188496 26.208,15.12 C26.208,17.6211504 24.1731504,19.656 21.672,19.656 Z" id="Path" fill="#FE9102"></path>
                    <circle id="Oval" fill="#FF5622" cx="8.568" cy="19.656" r="1.512"></circle>
                    <circle id="Oval" fill="#FE9102" cx="21.672" cy="5.544" r="1.512"></circle>
                    <circle id="Oval" fill="#FE9102" cx="15.624" cy="1.512" r="1.512"></circle>
                    <path d="M5.544,13.608 C2.4870384,13.608 0,11.1209616 0,8.064 C0,5.0070384 2.4870384,2.52 5.544,2.52 C8.6009616,2.52 11.088,5.0070384 11.088,8.064 C11.088,11.1209616 8.6009616,13.608 5.544,13.608 Z" id="Path" fill="#FF5622"></path>
                </g>
            </g>
        </g>
    </g>
</svg>